<?xml version="1.0" encoding="utf-8"?>
<svg xmlns="http://www.w3.org/2000/svg" width="39.52" height="39.52" viewBox="0 0 39.52 39.52">
  <g id="lifebuoy-2" transform="translate(0 19.761) rotate(-45)">
    <g id="Groupe_196" data-name="Groupe 196" transform="translate(22.217 4.927)">
      <g id="Groupe_195" data-name="Groupe 195">
        <path id="Tracé_230" data-name="Tracé 230" d="M407.987,90.462l-.008-.009a.546.546,0,1,0-.782.761l0,0a.546.546,0,0,0,.787-.756Z" transform="translate(-407.042 -90.288)" fill="#121736"/>
      </g>
    </g>
    <g id="Groupe_198" data-name="Groupe 198" transform="translate(0.001 -0.001)">
      <g id="Groupe_197" data-name="Groupe 197" transform="translate(0 0)">
        <path id="Tracé_231" data-name="Tracé 231" d="M26.717,14.811c.018-.278.028-.558.028-.84s-.01-.561-.028-.84a14.59,14.59,0,0,0,1.215-6.146A7.356,7.356,0,0,0,25.91,2.034,7.356,7.356,0,0,0,20.959.011a14.591,14.591,0,0,0-6.145,1.215Q14.4,1.2,13.973,1.2c-.281,0-.561.01-.84.028A14.594,14.594,0,0,0,6.987.012,7.356,7.356,0,0,0,2.036,2.034,7.356,7.356,0,0,0,.013,6.986a14.591,14.591,0,0,0,1.215,6.146c-.018.278-.028.558-.028.84s.01.561.028.84A14.59,14.59,0,0,0,.013,20.957a7.356,7.356,0,0,0,2.022,4.952,7.356,7.356,0,0,0,4.952,2.022q.253.013.512.012a15.066,15.066,0,0,0,5.632-1.228c.279.018.559.028.841.028s.562-.01.841-.028a15.065,15.065,0,0,0,5.632,1.228q.259,0,.512-.012a7.356,7.356,0,0,0,4.952-2.022,7.356,7.356,0,0,0,2.022-4.952A14.591,14.591,0,0,0,26.717,14.811ZM16.92,2.664a11.593,11.593,0,0,1,3.91,1.851.546.546,0,1,0,.642-.883,12.677,12.677,0,0,0-4.366-2.046c3.368-.946,6.285-.527,8.032,1.221s2.166,4.666,1.22,8.036a12.7,12.7,0,0,0-1.7-3.869.546.546,0,1,0-.913.6,11.607,11.607,0,0,1,1.532,3.452H20.785A7.467,7.467,0,0,0,16.92,7.159Zm4.241,9.451h4.345a11.738,11.738,0,0,1,0,3.712H21.161a7.45,7.45,0,0,0,0-3.712ZM20.3,13.971A6.332,6.332,0,1,1,13.973,7.64,6.339,6.339,0,0,1,20.3,13.971ZM12.117,6.782V2.439a11.79,11.79,0,0,1,3.712,0h0V6.782h0a7.45,7.45,0,0,0-3.712,0Zm-1.092.377a7.467,7.467,0,0,0-3.865,3.865H2.67a11.724,11.724,0,0,1,8.356-8.356V7.159ZM6.785,15.827H2.441a11.707,11.707,0,0,1,0-3.712H6.785a7.449,7.449,0,0,0,0,3.712ZM2.808,2.806C4.555,1.059,7.471.64,10.838,1.585a12.808,12.808,0,0,0-9.251,9.251C.642,7.469,1.061,4.553,2.808,2.806Zm0,22.331C1.061,23.39.642,20.474,1.586,17.106a12.808,12.808,0,0,0,9.251,9.251C7.471,27.3,4.555,26.884,2.808,25.137Zm8.218.138a11.724,11.724,0,0,1-8.356-8.356H7.161a7.467,7.467,0,0,0,3.865,3.865v4.491Zm4.8.229a11.708,11.708,0,0,1-3.712,0V21.16a7.45,7.45,0,0,0,3.712,0Zm1.092-4.72a7.467,7.467,0,0,0,3.865-3.865h4.491a11.724,11.724,0,0,1-8.356,8.356Zm8.218,4.353c-1.747,1.747-4.663,2.166-8.03,1.221a12.808,12.808,0,0,0,9.251-9.251C27.3,20.474,26.885,23.39,25.139,25.137Z" transform="translate(-0.001 0.001)" fill="#121736"/>
      </g>
    </g>
    <g id="Groupe_200" data-name="Groupe 200" transform="translate(9.077 13.426)">
      <g id="Groupe_199" data-name="Groupe 199">
        <path id="Tracé_232" data-name="Tracé 232" d="M169.464,249.941a3.791,3.791,0,0,1-2.084-3.395.546.546,0,1,0-1.092,0,4.877,4.877,0,0,0,2.682,4.368.546.546,0,1,0,.494-.973Z" transform="translate(-166.288 -246)" fill="#121736"/>
      </g>
    </g>
    <g id="Groupe_202" data-name="Groupe 202" transform="translate(13.409 17.776)">
      <g id="Groupe_201" data-name="Groupe 201">
        <path id="Tracé_233" data-name="Tracé 233" d="M246.23,325.713h-.018a.546.546,0,0,0,0,1.092h.021a.546.546,0,1,0,0-1.092Z" transform="translate(-245.666 -325.713)" fill="#121736"/>
      </g>
    </g>
  </g>
</svg>
