<?xml version="1.0" encoding="utf-8"?>
<svg xmlns="http://www.w3.org/2000/svg" width="37.681" height="22.977" viewBox="0 0 37.681 22.977">
  <path id="mortarboard" d="M37.351,8.338,19.068.051a.549.549,0,0,0-.455,0L11.2,3.411a.568.568,0,0,0-.281.746.555.555,0,0,0,.737.285L18.84,1.186l6.577,2.981V8.329a22.585,22.585,0,0,0-6.562-1.4h-.031a22.763,22.763,0,0,0-7.33,1.7A18.929,18.929,0,0,0,7.36,10.961a.564.564,0,0,0-.194.269L1.923,8.853l7.35-3.331a.567.567,0,0,0,.281-.746.554.554,0,0,0-.736-.285L.33,8.338a.568.568,0,0,0,0,1.032l6.8,3.085v2.706a.557.557,0,1,0,1.115,0V12.1h0v-.4a17.961,17.961,0,0,1,3.667-2.027,22.158,22.158,0,0,1,6.924-1.613,22.041,22.041,0,0,1,6.577,1.473V15.15a2,2,0,0,0-.194,3.759l-.39,1.04a20.624,20.624,0,0,0-5.994,1.82C15.533,20.008,9.994,19.51,8.25,19.394V17.809a.557.557,0,1,0-1.115,0v2.119a.562.562,0,0,0,.533.564c.073,0,7.317.346,10.9,2.412a.551.551,0,0,0,.552,0,17.694,17.694,0,0,1,5.255-1.722l-.329.879a.571.571,0,0,0,.062.522.556.556,0,0,0,.459.244h2.824a.556.556,0,0,0,.459-.244.572.572,0,0,0,.062-.522l-.5-1.344c1.517-.176,2.6-.226,2.608-.226a.562.562,0,0,0,.533-.564V17.808a.557.557,0,1,0-1.115,0v1.586c-.52.036-1.385.106-2.435.234l-.269-.719a2,2,0,0,0-.194-3.759V10.015a17.6,17.6,0,0,1,2.9,1.688v.4h0v3.06a.557.557,0,1,0,1.115,0V12.454l6.8-3.085a.568.568,0,0,0,0-1.032ZM25.371,21.7l.6-1.611.6,1.611Zm1.459-4.633a.855.855,0,1,1-.855-.866A.861.861,0,0,1,26.83,17.065Zm3.685-5.835a.564.564,0,0,0-.194-.269,18.768,18.768,0,0,0-3.788-2.182V4.672l9.225,4.181Zm0,0" transform="translate(0 -0.002)" fill="#121736"/>
</svg>
