<?xml version="1.0" encoding="utf-8"?>
<svg xmlns="http://www.w3.org/2000/svg" width="29.458" height="32.788" viewBox="0 0 29.458 32.788">
  <g id="compass" transform="translate(-26.002)">
    <path id="Tracé_957" data-name="Tracé 957" d="M51.146,7.644a14.618,14.618,0,0,0-8.494-4.19V1.921a1.921,1.921,0,1,0-3.842,0V3.455a14.643,14.643,0,0,0-6.144,2.279.64.64,0,1,0,.7,1.071A13.371,13.371,0,0,1,39.5,4.667l.031,0q.6-.053,1.2-.054A13.447,13.447,0,1,1,29.477,10.7a.64.64,0,1,0-1.071-.7,14.729,14.729,0,1,0,22.74-2.349Zm-11.055-4.3V1.921a.64.64,0,1,1,1.281,0V3.345c-.213-.009-.426-.014-.64-.014s-.427.005-.64.014Z" fill="#121736"/>
    <path id="Tracé_958" data-name="Tracé 958" d="M78.167,116.337A12.167,12.167,0,1,0,66,104.169,12.181,12.181,0,0,0,78.167,116.337Zm0-23.054a10.887,10.887,0,1,1-10.887,10.887A10.9,10.9,0,0,1,78.167,93.283Z" transform="translate(-37.437 -86.11)" fill="#121736"/>
    <path id="Tracé_959" data-name="Tracé 959" d="M128.2,162.425h5.36l.559.845a.64.64,0,0,0,.181.181l.845.559v5.36a.64.64,0,0,0,1.281,0v-4.512l4.57,3.025a.64.64,0,0,0,.888-.887l-3.025-4.57h4.512a.64.64,0,1,0,0-1.281h-5.36l-.559-.845a.64.64,0,0,0-.181-.181l-.845-.559V154.2a.64.64,0,0,0-1.281,0v4.512l-4.57-3.025a.64.64,0,0,0-.888.887l3.025,4.57H128.2a.64.64,0,0,0,0,1.281Zm8.255-1.31,2.623,3.963-3.963-2.623-2.623-3.963Z" transform="translate(-95.054 -143.725)" fill="#121736"/>
    <path id="Tracé_960" data-name="Tracé 960" d="M91.078,117.717a.638.638,0,0,0,.431-.167h0a.64.64,0,1,0-.431.167Z" transform="translate(-60.309 -108.979)" fill="#121736"/>
  </g>
</svg>
